<?xml version="1.0" standalone="no"?>
<!DOCTYPE svg PUBLIC "-//W3C//DTD SVG 20010904//EN"
 "http://www.w3.org/TR/2001/REC-SVG-20010904/DTD/svg10.dtd">
<svg version="1.0" xmlns="http://www.w3.org/2000/svg"
 width="512.000000pt" height="512.000000pt" viewBox="0 0 512.000000 512.000000"
 preserveAspectRatio="xMidYMid meet">
<metadata>
Created by potrace 1.14, written by Peter Selinger 2001-2017
</metadata>
<g transform="translate(0.000000,512.000000) scale(0.100000,-0.100000)"
fill="#000000" stroke="none">
<path d="M3736 4835 c-11 -8 -29 -12 -39 -9 -13 4 -17 2 -13 -5 4 -6 0 -11
-10 -11 -10 0 -14 -3 -11 -7 15 -14 -52 -32 -84 -23 -22 7 -37 6 -46 -1 -10
-9 -13 -7 -13 7 0 17 -1 17 -14 -2 -12 -15 -17 -17 -27 -6 -21 20 -58 14 -86
-14 -14 -14 -31 -23 -37 -21 -7 3 -18 -4 -24 -14 -7 -10 -19 -19 -28 -19 -37
0 -94 -24 -94 -39 0 -13 -2 -13 -9 -2 -7 11 -13 9 -29 -7 -14 -14 -22 -17 -26
-9 -2 7 -5 5 -5 -4 -1 -17 -41 -34 -51 -21 -12 16 -30 10 -30 -10 0 -17 -3
-19 -9 -10 -6 10 -10 4 -15 -18 -4 -21 -13 -34 -27 -37 -14 -4 -17 -8 -9 -13
9 -6 6 -14 -9 -29 -11 -11 -26 -21 -32 -21 -5 0 -7 -5 -3 -11 4 -7 1 -10 -7
-7 -16 5 -39 -35 -44 -77 -2 -16 -8 -47 -13 -67 -6 -21 -6 -38 -2 -38 4 0 10
-9 13 -20 4 -15 0 -20 -15 -20 -12 0 -27 -8 -34 -17 -13 -17 -14 -17 -7 2 6
19 6 19 -14 3 -11 -10 -24 -18 -30 -18 -6 0 -8 -11 -5 -25 2 -14 8 -25 13 -25
5 0 6 -6 3 -14 -3 -8 -12 -12 -19 -10 -7 3 -18 -7 -26 -25 -8 -17 -20 -31 -26
-31 -7 0 -13 -7 -13 -15 0 -8 -6 -15 -12 -15 -9 0 -8 -4 2 -10 11 -8 7 -9 -15
-4 -16 4 -27 3 -23 -1 4 -5 3 -14 -4 -22 -8 -10 -8 -12 3 -8 10 4 15 -1 15
-14 0 -11 -4 -17 -8 -15 -10 6 -11 -20 -1 -29 3 -4 12 -2 18 3 9 8 15 3 20
-17 4 -17 2 -29 -4 -31 -6 -2 -11 -13 -11 -24 0 -18 4 -15 25 13 14 19 28 42
31 52 4 9 10 17 15 17 5 0 9 12 9 27 0 14 3 24 6 20 4 -3 23 18 43 46 67 98
106 146 117 147 7 0 15 7 18 16 3 8 10 12 16 9 5 -3 10 -2 10 3 0 6 34 27 75
47 95 46 170 54 395 43 79 -4 182 -23 213 -39 10 -5 22 -7 27 -4 5 3 11 1 15
-5 3 -5 17 -10 29 -10 27 0 118 -38 128 -53 3 -6 16 -12 29 -14 30 -5 74 -26
71 -35 -3 -12 40 -58 49 -53 4 3 5 -5 2 -17 -4 -19 -3 -20 6 -8 12 17 14 11
15 -40 1 -22 6 -34 14 -33 6 2 12 -6 12 -16 0 -11 5 -23 12 -27 8 -5 9 -2 5
10 -6 14 -3 17 9 12 8 -3 20 -6 26 -6 6 0 2 -8 -9 -17 -10 -10 -14 -15 -9 -10
16 12 46 8 43 -5 -1 -7 8 -14 21 -16 12 -2 22 -10 22 -17 0 -8 8 -13 18 -13
30 2 92 -23 92 -37 0 -7 8 -15 17 -17 16 -3 15 -6 -5 -26 -19 -19 -22 -30 -16
-50 4 -15 6 -31 5 -36 -1 -4 3 -13 8 -20 6 -7 6 -17 1 -26 -7 -11 -10 -12 -10
-2 0 7 -4 10 -10 7 -5 -3 -10 -15 -10 -25 0 -20 -20 -21 -44 -1 -17 14 -22 1
-6 -15 6 -6 3 -10 -10 -11 -11 -1 -20 4 -20 13 0 8 -5 14 -11 14 -5 0 -8 4 -5
8 2 4 -3 8 -12 9 -49 4 -68 7 -78 14 -17 14 -54 -2 -54 -23 0 -10 -9 -36 -20
-58 -22 -42 -15 -56 23 -45 15 5 12 0 -10 -14 -18 -11 -44 -23 -59 -27 -21 -5
-25 -3 -22 12 2 12 -2 18 -11 16 -17 -3 -43 17 -35 29 3 5 -2 6 -10 3 -9 -3
-16 -1 -16 6 0 8 -14 9 -45 4 -32 -4 -50 -2 -62 7 -9 8 -18 12 -20 10 -7 -7
-73 10 -73 19 0 5 -13 5 -29 0 -16 -4 -32 -6 -35 -2 -3 3 -6 0 -6 -6 0 -16
-40 -15 -41 1 0 6 -4 2 -10 -11 -9 -24 -29 -22 -29 3 0 7 -12 23 -27 34 -24
20 -27 20 -44 5 -15 -14 -21 -14 -34 -4 -12 10 -15 10 -15 -4 0 -13 -5 -16
-21 -11 -14 5 -25 1 -34 -11 -13 -18 -14 -18 -32 -1 -27 24 -34 21 -29 -10 2
-16 5 -38 5 -50 1 -17 7 -23 24 -23 13 0 28 5 35 12 14 14 80 12 119 -4 15 -6
33 -10 38 -9 18 5 119 2 184 -5 46 -5 71 -13 86 -28 11 -11 24 -22 28 -24 4
-1 14 -5 23 -9 28 -10 66 -51 55 -58 -16 -9 -207 26 -242 44 -14 8 -78 6 -124
-4 -18 -4 -65 -61 -65 -79 0 -4 17 6 38 23 20 16 49 33 65 36 32 8 154 -13
164 -28 4 -7 -7 -8 -33 -2 -77 15 -125 15 -154 0 -28 -15 -100 -103 -100 -124
0 -22 46 -11 60 14 17 31 28 32 32 3 6 -41 96 -33 113 10 4 12 -2 14 -34 9
-43 -5 -62 13 -40 39 18 22 60 18 66 -6 3 -11 9 -20 13 -20 5 0 12 9 15 20 10
33 55 21 132 -35 53 -38 71 -68 54 -89 -7 -8 -11 -23 -10 -33 1 -10 -2 -26 -6
-37 -11 -24 11 -38 51 -31 17 3 46 -1 65 -9 22 -9 66 -13 127 -11 57 1 98 -3
105 -9 7 -6 24 -17 40 -25 25 -13 26 -16 13 -36 -11 -16 -12 -25 -4 -33 9 -9
7 -16 -5 -30 -13 -15 -14 -21 -4 -32 7 -8 8 -10 1 -7 -7 4 -14 -2 -17 -13 -3
-11 -6 -24 -7 -28 -2 -4 -11 -13 -21 -20 -11 -7 -19 -23 -20 -35 0 -18 -2 -19
-7 -5 -6 15 -9 13 -20 -12 -8 -17 -19 -30 -25 -30 -7 0 -25 -20 -42 -44 -16
-24 -33 -39 -36 -34 -4 6 -10 1 -14 -11 -4 -15 -12 -20 -22 -17 -11 4 -13 2
-9 -9 3 -9 0 -15 -8 -15 -7 0 -19 -11 -26 -25 -7 -14 -19 -25 -26 -25 -7 0
-16 -9 -19 -21 -4 -11 -16 -24 -28 -29 -21 -8 -21 -9 -2 -10 15 -1 11 -5 -14
-16 -27 -11 -32 -17 -23 -26 9 -9 5 -19 -19 -40 -16 -15 -24 -28 -17 -29 7 0
3 -4 -10 -9 -12 -5 -27 -21 -32 -35 -5 -14 -12 -25 -15 -25 -4 0 -3 6 0 13 3
6 0 3 -7 -7 -7 -11 -28 -34 -45 -52 -18 -18 -33 -37 -33 -43 0 -6 -4 -11 -10
-11 -14 0 -13 13 2 28 6 6 8 15 5 19 -4 4 -14 -2 -22 -14 -12 -17 -65 -38 -87
-34 -4 0 -19 -4 -33 -9 -26 -10 -35 -40 -12 -40 8 0 7 -4 -3 -10 -12 -7 -16
-3 -21 18 l-7 27 -1 -31 c-1 -39 -37 -114 -55 -114 -8 0 -16 -9 -19 -20 -3
-12 -14 -20 -25 -20 -11 0 -22 -4 -24 -10 -1 -5 -18 -10 -35 -12 -19 -1 -33
-8 -33 -15 0 -7 -4 -13 -10 -13 -5 0 -7 7 -4 15 8 20 -22 9 -48 -17 -12 -12
-26 -17 -39 -13 -11 4 -19 2 -19 -4 0 -6 6 -10 13 -9 7 2 12 -10 13 -32 0 -19
2 -39 4 -45 1 -5 1 -18 1 -28 -1 -9 5 -24 13 -33 9 -8 16 -22 16 -30 0 -8 5
-12 11 -9 6 4 5 -2 -3 -14 -7 -12 -20 -21 -28 -21 -13 0 -13 1 0 10 11 7 5 10
-25 10 -29 0 -36 3 -25 10 10 7 -2 9 -41 7 -32 -1 -55 -5 -53 -8 6 -11 -80
-16 -87 -6 -4 5 -9 5 -13 -2 -10 -16 -59 -14 -82 4 -24 18 -55 20 -48 2 3 -8
-6 -18 -21 -25 -21 -10 -25 -9 -25 5 0 15 -2 15 -19 -1 -14 -13 -24 -14 -45
-6 -34 13 -39 13 -30 -1 4 -8 1 -8 -12 -1 -11 6 -21 10 -24 10 -3 0 -18 6 -34
12 -20 7 -31 8 -36 0 -4 -6 -13 -5 -25 4 -11 8 -25 11 -32 9 -8 -3 -13 0 -11
8 2 9 -4 13 -15 11 -15 -3 -16 2 -11 24 4 16 3 25 -3 21 -5 -3 -17 7 -27 23
l-17 29 -67 -25 c-37 -14 -116 -42 -177 -64 -60 -21 -146 -53 -190 -70 -44
-17 -110 -42 -146 -56 -76 -27 -185 -77 -153 -69 28 7 38 -18 13 -33 -12 -8
-19 -8 -19 -2 0 5 5 10 12 10 6 0 8 3 5 6 -4 4 -12 2 -19 -3 -7 -6 -26 -14
-43 -18 -27 -7 -28 -8 -10 -15 16 -7 12 -9 -17 -9 -20 -1 -39 -7 -41 -13 -4
-9 -8 -10 -14 -2 -4 6 -15 14 -23 17 -10 4 -8 6 7 6 12 1 25 6 29 12 7 12 -20
6 -71 -17 -30 -13 -30 -13 -2 -8 23 5 27 3 27 -15 0 -14 -6 -21 -19 -21 -11 0
-21 -7 -23 -16 -2 -10 -15 -18 -31 -20 -35 -4 -134 -60 -147 -84 -6 -11 -26
-21 -50 -25 -28 -5 -40 -12 -40 -23 0 -15 2 -15 10 -2 5 8 10 10 10 4 0 -6 -7
-17 -15 -24 -12 -10 -18 -10 -30 0 -12 10 -15 10 -15 -3 0 -11 -5 -14 -17 -10
-11 4 -14 3 -9 -5 4 -7 1 -12 -8 -12 -29 0 -87 -34 -81 -48 2 -7 1 -11 -4 -8
-4 3 -14 -6 -21 -19 -7 -14 -22 -25 -32 -25 -10 0 -18 -5 -18 -12 0 -6 -3 -8
-7 -5 -3 4 -13 1 -22 -7 -9 -8 -20 -15 -26 -15 -5 -1 -10 -9 -10 -18 0 -9 -6
-18 -14 -21 -8 -3 -11 0 -7 6 7 12 -20 10 -31 -3 -4 -4 -2 -5 5 -1 6 4 12 2
12 -3 0 -6 -6 -11 -12 -11 -10 0 -10 -2 0 -9 10 -6 8 -10 -10 -16 -12 -4 -29
-6 -36 -5 -10 1 -11 -3 -2 -19 8 -17 8 -21 -3 -21 -8 0 -24 -9 -37 -20 -13
-11 -18 -20 -11 -20 7 0 9 -5 6 -10 -4 -6 -10 -8 -15 -5 -4 3 -11 -2 -14 -11
-4 -10 -13 -13 -28 -9 -13 3 -18 3 -13 -2 18 -15 14 -41 -6 -36 -21 6 -26 -12
-6 -20 7 -3 5 -6 -5 -6 -10 -1 -18 -8 -18 -17 0 -8 -4 -12 -10 -9 -5 3 -10 0
-10 -8 0 -18 -46 -68 -54 -59 -4 3 -4 -1 0 -11 3 -9 2 -17 -4 -17 -5 0 -12 -9
-15 -21 -4 -16 -10 -19 -28 -14 -16 5 -19 4 -14 -6 6 -9 4 -11 -7 -6 -11 4
-18 -1 -21 -14 -3 -10 -1 -19 4 -19 5 0 9 5 9 10 0 6 6 10 13 10 6 0 -2 -13
-20 -30 -23 -22 -30 -35 -26 -52 5 -23 5 -23 -11 -3 -15 19 -16 19 -9 1 5 -16
3 -18 -12 -12 -11 4 -16 4 -12 0 4 -5 -2 -13 -14 -19 -19 -11 -20 -13 -4 -28
9 -10 11 -17 5 -17 -15 0 -55 -38 -47 -46 3 -3 -3 -15 -14 -27 -10 -11 -19
-28 -19 -36 -1 -13 -3 -13 -11 2 -10 17 -12 17 -30 -4 -16 -19 -17 -24 -4 -42
17 -25 19 -37 5 -37 -5 0 -9 3 -7 7 1 5 -3 9 -8 10 -6 2 -10 -6 -10 -16 0 -11
-3 -23 -7 -27 -5 -4 -8 -2 -8 4 0 7 -6 12 -13 12 -14 0 -41 -39 -33 -48 3 -3
6 0 6 6 0 7 7 12 15 12 8 0 15 -4 15 -10 0 -5 -5 -10 -11 -10 -6 0 -8 -7 -5
-17 4 -10 4 -15 1 -11 -3 3 -18 -5 -33 -19 -27 -25 -38 -63 -20 -74 5 -3 2 -9
-7 -12 -9 -4 -13 -3 -10 3 3 6 1 10 -4 10 -6 0 -11 -9 -11 -20 0 -12 -7 -32
-16 -45 -9 -14 -14 -34 -11 -45 3 -11 1 -18 -4 -14 -5 3 -9 1 -9 -5 0 -5 8
-12 18 -14 13 -4 11 -5 -5 -6 -16 -1 -23 -7 -23 -22 0 -11 -5 -29 -10 -40 -11
-19 21 -19 2490 -19 l2500 0 0 795 0 794 -77 25 c-43 13 -116 34 -163 46 -47
13 -115 38 -151 56 -66 33 -216 74 -270 74 -27 0 -129 37 -129 46 0 2 14 65
30 141 17 75 30 146 30 158 0 12 12 28 30 39 17 9 28 22 24 27 -4 7 15 8 54 3
34 -3 77 -3 96 0 49 9 94 50 102 92 3 19 10 34 14 34 15 0 73 101 95 165 22
62 37 135 39 185 1 24 20 44 41 45 6 0 11 27 12 59 2 49 7 64 29 87 24 26 26
31 19 88 -5 42 -4 61 4 61 6 0 11 6 11 14 0 8 9 18 20 21 27 8 62 76 49 96
-14 23 -10 30 11 17 25 -16 39 -3 50 46 6 29 5 36 -7 36 -8 0 -20 14 -26 30
-6 17 -15 30 -19 30 -4 0 -5 7 -1 16 3 8 11 13 17 11 8 -3 10 6 8 29 -5 38 19
84 43 84 26 0 16 34 -15 55 -31 21 -39 49 -17 59 6 3 2 3 -10 0 -24 -6 -32 11
-10 19 8 4 9 8 1 14 -6 4 -17 26 -24 48 -7 22 -17 50 -23 62 -7 16 -7 26 1 36
8 10 8 17 1 24 -8 8 -8 17 0 31 18 33 13 55 -20 95 -17 20 -27 41 -24 47 3 5
0 10 -7 10 -9 0 -9 3 -2 8 11 7 13 15 17 71 2 32 -1 35 -38 48 -40 13 -54 34
-70 111 -3 12 -14 31 -25 42 -21 21 -35 27 -25 10 3 -6 -1 -7 -9 -4 -9 3 -16
10 -16 15 0 4 -7 6 -15 3 -22 -9 -20 45 3 62 11 9 13 13 4 14 -7 0 -11 4 -8 9
3 4 -3 16 -13 25 -13 11 -21 14 -26 7 -11 -18 -35 -12 -35 9 0 11 -4 20 -10
20 -5 0 -10 7 -10 15 0 8 -8 16 -17 16 -10 1 -22 2 -28 4 -5 1 -15 3 -22 3 -8
1 -10 14 -6 38 7 44 -5 54 -59 48 -21 -2 -37 0 -34 5 8 12 -59 40 -82 34 -27
-7 -62 13 -62 36 0 10 -11 30 -25 45 -14 15 -25 33 -25 40 0 8 -7 19 -15 26
-12 10 -16 9 -21 -4 -5 -12 -10 -14 -19 -6 -6 5 -14 7 -17 5 -10 -11 -48 -14
-48 -4 0 5 -13 9 -28 9 -16 0 -37 7 -48 15 -10 8 -27 15 -36 15 -10 0 -22 8
-27 19 -10 18 -71 35 -71 20 0 -18 -37 -12 -59 9 -18 19 -26 21 -32 10 -6 -10
-11 -10 -21 0 -6 6 -17 12 -22 12 -6 0 -4 -5 4 -11 11 -8 8 -9 -14 -4 -23 5
-27 3 -23 -9 4 -9 2 -16 -3 -16 -6 0 -10 5 -10 10 0 6 -6 10 -13 10 -19 0 -50
37 -42 49 8 14 4 13 -19 -4z m-268 -78 c2 -9 -2 -17 -9 -17 -7 0 -9 3 -6 7 4
3 -1 12 -11 20 -16 13 -16 14 3 11 11 -2 21 -11 23 -21z m-533 -367 c3 -5 1
-10 -4 -10 -6 0 -11 5 -11 10 0 6 2 10 4 10 3 0 8 -4 11 -10z m-5 -30 c0 -5
-4 -10 -10 -10 -5 0 -10 5 -10 10 0 6 5 10 10 10 6 0 10 -4 10 -10z m-103
-252 c-3 -8 -6 -5 -6 6 -1 11 2 17 5 13 3 -3 4 -12 1 -19z m-50 -97 c-19 -23
-26 -27 -31 -16 -6 18 35 65 48 54 5 -4 -3 -21 -17 -38z m1483 18 c0 -6 -4 -7
-10 -4 -5 3 -10 11 -10 16 0 6 5 7 10 4 6 -3 10 -11 10 -16z m110 -223 c0 -3
-4 -8 -10 -11 -5 -3 -10 -1 -10 4 0 6 5 11 10 11 6 0 10 -2 10 -4z m20 -25 c0
-13 -28 -22 -35 -11 -3 4 1 11 7 13 20 8 28 8 28 -2z m-291 -97 c6 4 11 2 11
-3 0 -12 -11 -14 -34 -5 -9 3 -13 11 -10 16 4 6 9 6 14 -2 4 -7 13 -9 19 -6z
m34 -9 c-3 -9 -8 -14 -10 -11 -3 3 -2 9 2 15 9 16 15 13 8 -4z m37 -5 c0 -5
-2 -10 -4 -10 -3 0 -8 5 -11 10 -3 6 -1 10 4 10 6 0 11 -4 11 -10z m-2376
-1985 c-10 -8 -26 -14 -34 -14 -9 0 -4 6 10 14 33 19 49 19 24 0z m1102 -314
c21 -11 40 -16 42 -11 2 5 9 7 17 4 8 -3 11 -12 8 -20 -4 -12 0 -13 20 -5 25
10 37 6 37 -11 0 -5 -4 -7 -9 -3 -5 3 -12 1 -16 -5 -3 -5 0 -10 7 -10 10 0 10
-2 1 -8 -18 -12 6 -62 30 -62 10 0 15 -5 12 -11 -4 -6 2 -13 14 -16 11 -3 19
-9 16 -13 -3 -5 2 -16 11 -24 14 -15 11 -20 -9 -17 -5 1 -6 -3 -2 -8 3 -6 12
-8 20 -4 8 3 15 0 15 -6 0 -6 -11 -11 -24 -11 -14 0 -28 -5 -32 -12 -4 -7 -3
-8 4 -4 8 5 12 -1 12 -14 0 -12 -4 -18 -10 -15 -5 3 -10 0 -10 -9 0 -8 6 -17
13 -19 7 -3 5 -6 -5 -6 -11 -1 -18 -9 -18 -21 0 -24 -8 -25 -38 -4 -12 8 -22
12 -22 7 -1 -4 -10 3 -21 17 -12 14 -41 48 -66 76 -69 79 -138 213 -127 246 7
25 78 24 130 -1z m-2636 -1106 c0 -8 -4 -15 -10 -15 -5 0 -7 7 -4 15 4 8 8 15
10 15 2 0 4 -7 4 -15z"/>
<path d="M3306 4741 c-4 -7 -5 -15 -2 -18 9 -9 19 4 14 18 -4 11 -6 11 -12 0z"/>
<path d="M4065 3749 c-4 -6 -5 -13 -2 -16 7 -7 27 6 27 18 0 12 -17 12 -25 -2z"/>
<path d="M2879 3696 c-3 -3 -20 -7 -38 -8 -18 -1 -36 -8 -38 -15 -3 -7 -16
-13 -30 -13 -16 0 -22 4 -17 13 6 10 4 10 -7 0 -7 -7 -21 -13 -31 -13 -10 0
-18 -5 -18 -11 0 -6 -7 -9 -15 -5 -21 8 -19 -10 3 -19 19 -8 93 -18 133 -18
38 1 81 45 71 72 -4 12 -10 20 -13 17z m-29 -42 c0 -2 -9 -4 -21 -4 -11 0 -18
4 -14 10 5 8 35 3 35 -6z"/>
<path d="M3985 3570 c3 -5 13 -10 21 -10 8 0 12 5 9 10 -3 6 -13 10 -21 10 -8
0 -12 -4 -9 -10z"/>
<path d="M2693 3517 c-35 -5 -63 -13 -63 -19 0 -6 10 -8 23 -4 12 3 48 6 80 6
31 0 57 4 57 9 0 15 -32 17 -97 8z"/>
<path d="M2602 3473 c9 -11 7 -18 -6 -31 -16 -16 -17 -16 -10 1 8 21 -2 22
-23 2 -13 -14 -13 -18 1 -40 9 -13 16 -28 16 -32 0 -4 -5 -1 -10 7 -7 11 -10
7 -10 -17 0 -23 5 -33 15 -33 8 0 15 -4 15 -10 0 -5 6 -10 14 -10 8 0 14 6 13
13 0 6 1 23 2 37 1 19 3 22 10 10 6 -8 7 -18 5 -22 -9 -15 33 -8 46 7 10 13 9
15 -9 15 -27 0 -30 46 -3 54 52 14 83 16 102 6 12 -6 24 -9 27 -7 12 13 -84
49 -129 50 -26 0 -48 4 -48 7 0 4 -7 7 -15 7 -11 0 -12 -3 -3 -14z"/>
<path d="M3341 3411 c-7 -5 -12 -14 -10 -20 3 -6 9 -7 18 -2 7 5 12 14 10 20
-3 6 -9 7 -18 2z"/>
<path d="M3768 3243 c6 -2 18 -2 25 0 6 3 1 5 -13 5 -14 0 -19 -2 -12 -5z"/>
<path d="M5091 3076 c-7 -8 -26 -18 -42 -21 -20 -5 -31 -14 -36 -32 -3 -15 13
-164 36 -332 76 -549 68 -544 70 -43 0 248 -3 442 -8 442 -5 0 -14 -6 -20 -14z"/>
<path d="M2695 2950 c-16 -26 -15 -61 2 -66 10 -3 28 -11 41 -17 25 -12 89
-13 123 -2 25 8 14 24 -47 66 -43 29 -106 39 -119 19z"/>
<path d="M3021 2953 c-13 -3 -37 -18 -53 -34 -16 -16 -34 -29 -39 -29 -5 0 -9
-7 -9 -15 0 -20 39 -35 109 -41 31 -3 72 -10 92 -15 20 -5 44 -6 53 -3 22 8
29 44 17 77 -6 15 -7 27 -4 27 4 0 -2 7 -14 15 -22 16 -113 27 -152 18z"/>
<path d="M3323 2952 c-6 -4 -14 -21 -16 -37 -2 -17 -10 -29 -16 -27 -6 1 -10
-1 -9 -5 6 -21 -13 -73 -26 -73 -8 0 -16 -10 -18 -22 -2 -17 -9 -23 -27 -22
l-23 1 23 -18 c52 -39 123 -21 171 44 25 34 27 50 14 107 -13 55 -39 74 -73
52z"/>
<path d="M3064 2695 c5 -37 86 -92 86 -59 0 8 -5 14 -11 14 -6 0 -8 7 -5 17 4
10 4 14 0 11 -4 -4 -18 2 -32 12 -30 24 -41 25 -38 5z"/>
<path d="M3160 2610 c0 -5 5 -10 11 -10 5 0 7 5 4 10 -3 6 -8 10 -11 10 -2 0
-4 -4 -4 -10z"/>
<path d="M3220 2582 c0 -12 19 -26 26 -19 2 2 -2 10 -11 17 -9 8 -15 8 -15 2z"/>
<path d="M2515 2420 c-3 -5 3 -10 15 -10 12 0 18 5 15 10 -3 6 -10 10 -15 10
-5 0 -12 -4 -15 -10z"/>
<path d="M3136 2423 c-3 -3 -6 -18 -6 -32 0 -23 7 -29 51 -44 27 -10 53 -25
56 -33 7 -19 68 -18 88 2 9 10 12 20 7 23 -5 3 -14 15 -20 27 -14 26 -159 73
-176 57z"/>
<path d="M2648 2205 c-24 -24 34 -69 97 -74 8 0 15 -9 15 -18 0 -12 3 -14 11
-6 8 8 21 8 43 2 17 -6 54 -12 81 -15 72 -8 97 -12 123 -19 12 -4 22 -3 22 1
0 9 69 11 85 3 18 -9 40 -3 37 10 -1 7 2 27 7 46 8 30 7 32 -13 28 -15 -3 -17
-2 -8 4 9 7 2 14 -27 25 -29 12 -59 14 -113 10 -95 -8 -153 -7 -264 1 -49 4
-93 5 -96 2z"/>
<path d="M3187 1853 c-10 -9 -9 -23 2 -23 5 0 11 7 15 15 5 15 -5 20 -17 8z"/>
<path d="M1084 1334 c-18 -14 -18 -15 4 -4 12 6 22 13 22 15 0 8 -5 6 -26 -11z"/>
<path d="M860 1129 c0 -5 5 -7 10 -4 6 3 10 8 10 11 0 2 -4 4 -10 4 -5 0 -10
-5 -10 -11z"/>
<path d="M375 551 c-6 -11 9 -23 19 -14 9 9 7 23 -3 23 -6 0 -12 -4 -16 -9z"/>
</g>
</svg>
